<svg width="128" height="40" viewBox="0 0 128 40" fill="none" xmlns="http://www.w3.org/2000/svg">
<path fill-rule="evenodd" clip-rule="evenodd" d="M20.0703 5.03716L24.6356 2.40142C25.1551 2.10148 25.5762 2.34463 25.5762 2.94453C25.5762 3.54442 25.1551 4.27388 24.6356 4.57383L20.0703 7.20957C19.5508 7.50952 19.1296 7.26636 19.1296 6.66647C19.1296 6.06658 19.5508 5.33711 20.0703 5.03716ZM20.0703 9.67828L24.6356 7.04254C25.1551 6.74259 25.5762 6.98575 25.5762 7.58564C25.5762 8.18553 25.1551 8.915 24.6356 9.21494L20.0703 11.8507C19.5508 12.1506 19.1296 11.9075 19.1296 11.3076C19.1296 10.7077 19.5508 9.97822 20.0703 9.67828ZM34.4319 31.9516V26.6801C34.4319 26.0802 34.0107 25.3508 33.4912 25.0508C32.9717 24.7509 32.5505 24.994 32.5505 25.5939V30.8654C32.5505 31.4653 32.9717 32.1948 33.4912 32.4947C34.0107 32.7947 34.4319 32.5515 34.4319 31.9516ZM30.4124 24.3593V29.6308C30.4124 30.2307 29.9912 30.4739 29.4717 30.1739C28.9522 29.874 28.531 29.1445 28.531 28.5446V23.2731C28.531 22.6732 28.9522 22.4301 29.4717 22.73C29.9912 23.03 30.4124 23.7594 30.4124 24.3593ZM29.9872 10.7894L21.952 15.4285C21.8865 15.4663 21.8157 15.4994 21.7412 15.5277L20.0703 16.4924C19.5508 16.7923 19.1296 16.5492 19.1296 15.9493C19.1296 15.3494 19.5508 14.6199 20.0703 14.32L24.6356 11.6842C24.7011 11.6464 24.7651 11.6172 24.8269 11.5963L28.1058 9.70318C28.6254 9.40323 29.4677 9.40323 29.9872 9.70318C30.5067 10.0031 30.5067 10.4894 29.9872 10.7894ZM33.4937 11.723L38.0589 14.3587C38.5784 14.6587 38.5784 15.145 38.0589 15.4449C37.5394 15.7449 36.6971 15.7449 36.1775 15.4449L31.6123 12.8092C31.0928 12.5092 31.0928 12.0229 31.6123 11.723C32.1318 11.423 32.9741 11.423 33.4937 11.723ZM34.0394 16.6795L29.4741 14.0438C28.9546 13.7438 28.1123 13.7438 27.5928 14.0438C27.0732 14.3437 27.0732 14.83 27.5928 15.13L32.158 17.7657C32.6775 18.0657 33.5198 18.0657 34.0394 17.7657C34.5589 17.4658 34.5589 16.9795 34.0394 16.6795ZM30.0201 19L25.4548 16.3643C24.9353 16.0644 24.093 16.0644 23.5735 16.3643C23.054 16.6643 23.054 17.1506 23.5735 17.4505L25.3996 18.5048C25.417 18.5159 25.4344 18.5266 25.452 18.5367L33.4872 23.1759C34.0067 23.4758 34.4279 23.2326 34.4279 22.6328C34.4279 22.0329 34.0067 21.3034 33.4872 21.0035L30.0711 19.0311C30.0547 19.0206 30.0377 19.0102 30.0201 19ZM26.3925 22.0387L26.3925 27.3102C26.3925 27.3863 26.3857 27.4567 26.3728 27.5209V31.3062C26.3728 31.906 25.9517 32.6355 25.4321 32.9355C24.9126 33.2354 24.4915 32.9923 24.4915 32.3924V23.1141C24.4915 23.038 24.4982 22.9598 24.5111 22.8807V20.9525C24.5111 20.3526 24.9323 20.1095 25.4518 20.4094C25.9713 20.7094 26.3925 21.4388 26.3925 22.0387ZM21.9292 34.9627L17.364 37.5985C16.8444 37.8984 16.4233 37.6553 16.4233 37.0554C16.4233 36.4555 16.8444 35.726 17.364 35.4261L21.9292 32.7903C22.4487 32.4904 22.8699 32.7335 22.8699 33.3334C22.8699 33.9333 22.4487 34.6628 21.9292 34.9627ZM17.364 32.9569L21.9292 30.3211C22.4487 30.0212 22.8699 29.2917 22.8699 28.6918C22.8699 28.0919 22.4487 27.8488 21.9292 28.1487L17.364 30.7845C16.8444 31.0844 16.4233 31.8139 16.4233 32.4138C16.4233 33.0137 16.8444 33.2568 17.364 32.9569ZM22.8699 24.0502C22.8699 24.5588 22.5672 25.1604 22.1585 25.5146C22.0988 25.5781 22.0224 25.6377 21.9295 25.6914L13.8943 30.3305C13.3748 30.6305 12.5325 30.6305 12.0129 30.3305C11.4934 30.0306 11.4934 29.5443 12.0129 29.2443L17.2231 26.2363C17.269 26.2018 17.3161 26.1705 17.364 26.1428L21.9292 23.5071C22.4487 23.2071 22.8699 23.4503 22.8699 24.0502ZM3.94111 25.6749L8.50635 28.3106C9.02587 28.6105 9.86818 28.6105 10.3877 28.3106C10.9072 28.0107 10.9072 27.5243 10.3877 27.2244L5.82247 24.5887C5.30295 24.2887 4.46063 24.2887 3.94111 24.5887C3.42159 24.8886 3.42159 25.3749 3.94111 25.6749ZM12.5259 25.9898L7.96064 23.3541C7.44112 23.0541 7.44112 22.5678 7.96064 22.2679C8.48017 21.9679 9.32248 21.9679 9.842 22.2679L14.4072 24.9036C14.9268 25.2035 14.9268 25.6899 14.4072 25.9898C13.8877 26.2897 13.0454 26.2897 12.5259 25.9898ZM8.53224 16.8577L16.5674 21.4968C16.6168 21.5253 16.6653 21.5577 16.7127 21.5935L18.4265 22.583C18.9461 22.883 18.9461 23.3693 18.4265 23.6692C17.907 23.9692 17.0647 23.9692 16.5452 23.6692L11.9799 21.0335C11.9305 21.005 11.8858 20.9747 11.8458 20.9432L8.53224 19.0301C8.01271 18.7301 7.59156 18.0007 7.59156 17.4008C7.59156 16.8009 8.01271 16.5577 8.53224 16.8577ZM7.58765 13.3534L7.58765 8.08196C7.58765 7.48206 8.00881 7.23891 8.52833 7.53886C9.04785 7.8388 9.46901 8.56827 9.46901 9.16816V14.4396C9.46901 15.0395 9.04785 15.2827 8.52833 14.9827C8.00881 14.6828 7.58765 13.9533 7.58765 13.3534ZM11.6072 10.4028V15.6742C11.6072 16.2741 12.0283 17.0036 12.5479 17.3035C13.0674 17.6035 13.4885 17.3603 13.4885 16.7604V11.489C13.4885 10.8891 13.0674 10.1596 12.5479 9.85966C12.0283 9.55971 11.6072 9.80286 11.6072 10.4028ZM17.5081 7.60731V13.7808L15.6267 17.9717V8.69351C15.6267 8.09362 16.0479 7.36416 16.5674 7.06421C17.0869 6.76426 17.5081 7.00742 17.5081 7.60731ZM17.5081 13.7808L15.6271 18.001C15.6298 18.5998 16.0499 19.3255 16.5677 19.6244C17.0872 19.9244 17.5084 19.6812 17.5084 19.0813V13.8099C17.5084 13.8002 17.5083 13.7905 17.5081 13.7808Z" fill="#1E152A"/>
<path d="M52.3835 25V12.845H61.3255V14.919H54.8485V17.639H60.5265V19.662H54.8485V22.943H61.3765V25H52.3835ZM64.9423 25L61.9163 16.279H64.2623L65.6563 20.801C65.9113 21.634 66.0473 22.195 66.0473 22.195H66.0813C66.0813 22.195 66.2003 21.634 66.4553 20.801L67.8833 16.279H70.1953L67.1523 25H64.9423ZM75.1688 25.255C72.2788 25.255 70.6468 23.232 70.6468 20.631C70.6468 18.047 72.3978 16.041 74.9478 16.041C77.7528 16.041 79.2488 18.183 79.2488 21.294H72.9248C73.0948 22.637 73.8428 23.47 75.1518 23.47C76.0528 23.47 76.5798 23.062 76.8348 22.399H79.1128C78.7898 23.946 77.4128 25.255 75.1688 25.255ZM74.9818 17.826C73.7578 17.826 73.1628 18.557 72.9588 19.696H76.8348C76.7668 18.591 76.0358 17.826 74.9818 17.826ZM82.8859 16.279V17.673H82.9369C83.4639 16.687 84.0589 16.177 85.0789 16.177C85.3339 16.177 85.4869 16.194 85.6229 16.245V18.268H85.5719C84.0589 18.115 82.9709 18.914 82.9709 20.75V25H80.6589V16.279H82.8859ZM90.7559 25.255C88.0019 25.255 86.2849 23.249 86.2849 20.648C86.2849 18.047 87.9849 16.041 90.6369 16.041C92.8979 16.041 94.2919 17.35 94.5979 19.237H92.3369C92.1839 18.472 91.5889 17.894 90.7389 17.894C89.3449 17.894 88.6309 18.965 88.6309 20.648C88.6309 22.297 89.2939 23.402 90.7049 23.402C91.6399 23.402 92.3029 22.909 92.4559 21.923H94.6829C94.5299 23.776 93.0849 25.255 90.7559 25.255ZM96.0653 25V12.845H98.3773V25H96.0653ZM104.336 25.255C101.446 25.255 99.8145 23.232 99.8145 20.631C99.8145 18.047 101.565 16.041 104.115 16.041C106.92 16.041 108.416 18.183 108.416 21.294H102.092C102.262 22.637 103.01 23.47 104.319 23.47C105.22 23.47 105.747 23.062 106.002 22.399H108.28C107.957 23.946 106.58 25.255 104.336 25.255ZM104.149 17.826C102.925 17.826 102.33 18.557 102.126 19.696H106.002C105.934 18.591 105.203 17.826 104.149 17.826ZM115.318 25C115.182 24.83 115.097 24.422 115.046 24.031H115.012C114.57 24.694 113.941 25.204 112.445 25.204C110.66 25.204 109.402 24.269 109.402 22.535C109.402 20.614 110.966 20.002 112.904 19.73C114.349 19.526 115.012 19.407 115.012 18.744C115.012 18.115 114.519 17.707 113.55 17.707C112.462 17.707 111.935 18.098 111.867 18.931H109.81C109.878 17.401 111.017 16.058 113.567 16.058C116.185 16.058 117.239 17.231 117.239 19.271V23.708C117.239 24.371 117.341 24.762 117.545 24.915V25H115.318ZM113.006 23.589C114.332 23.589 115.063 22.773 115.063 21.923V20.614C114.655 20.852 114.026 20.988 113.448 21.124C112.241 21.396 111.646 21.668 111.646 22.484C111.646 23.3 112.19 23.589 113.006 23.589ZM121.275 16.279V17.673H121.326C121.853 16.687 122.448 16.177 123.468 16.177C123.723 16.177 123.876 16.194 124.012 16.245V18.268H123.961C122.448 18.115 121.36 18.914 121.36 20.75V25H119.048V16.279H121.275Z" fill="#1E152A"/>
</svg>
