<svg width="36" height="36" viewBox="0 0 36 36" fill="none" xmlns="http://www.w3.org/2000/svg">
<path fill-rule="evenodd" clip-rule="evenodd" d="M17.0703 3.03716L21.6356 0.401424C22.1551 0.101477 22.5762 0.344632 22.5762 0.944526C22.5762 1.54442 22.1551 2.27388 21.6356 2.57383L17.0703 5.20957C16.5508 5.50952 16.1296 5.26636 16.1296 4.66647C16.1296 4.06658 16.5508 3.33711 17.0703 3.03716ZM17.0703 7.67828L21.6356 5.04254C22.1551 4.74259 22.5762 4.98575 22.5762 5.58564C22.5762 6.18553 22.1551 6.915 21.6356 7.21494L17.0703 9.85068C16.5508 10.1506 16.1296 9.90748 16.1296 9.30758C16.1296 8.70769 16.5508 7.97822 17.0703 7.67828ZM31.4319 29.9516V24.6801C31.4319 24.0802 31.0107 23.3508 30.4912 23.0508C29.9717 22.7509 29.5505 22.994 29.5505 23.5939V28.8654C29.5505 29.4653 29.9717 30.1948 30.4912 30.4947C31.0107 30.7947 31.4319 30.5515 31.4319 29.9516ZM27.4124 22.3593V27.6308C27.4124 28.2307 26.9912 28.4739 26.4717 28.1739C25.9522 27.874 25.531 27.1445 25.531 26.5446V21.2731C25.531 20.6732 25.9522 20.4301 26.4717 20.73C26.9912 21.03 27.4124 21.7594 27.4124 22.3593ZM26.9872 8.78938L18.952 13.4285C18.8865 13.4663 18.8157 13.4994 18.7412 13.5277L17.0703 14.4924C16.5508 14.7923 16.1296 14.5492 16.1296 13.9493C16.1296 13.3494 16.5508 12.6199 17.0703 12.32L21.6356 9.68425C21.7011 9.64639 21.7651 9.61718 21.8269 9.59626L25.1058 7.70318C25.6254 7.40323 26.4677 7.40323 26.9872 7.70318C27.5067 8.00312 27.5067 8.48943 26.9872 8.78938ZM30.4937 9.72298L35.0589 12.3587C35.5784 12.6587 35.5784 13.145 35.0589 13.4449C34.5394 13.7449 33.6971 13.7449 33.1775 13.4449L28.6123 10.8092C28.0928 10.5092 28.0928 10.0229 28.6123 9.72298C29.1318 9.42303 29.9741 9.42303 30.4937 9.72298ZM31.0394 14.6795L26.4741 12.0438C25.9546 11.7438 25.1123 11.7438 24.5928 12.0438C24.0732 12.3437 24.0732 12.83 24.5928 13.13L29.158 15.7657C29.6775 16.0657 30.5198 16.0657 31.0394 15.7657C31.5589 15.4658 31.5589 14.9795 31.0394 14.6795ZM27.0201 17L22.4548 14.3643C21.9353 14.0644 21.093 14.0644 20.5735 14.3643C20.054 14.6643 20.054 15.1506 20.5735 15.4505L22.3996 16.5048C22.417 16.5159 22.4344 16.5266 22.452 16.5367L30.4872 21.1759C31.0067 21.4758 31.4279 21.2326 31.4279 20.6328C31.4279 20.0329 31.0067 19.3034 30.4872 19.0035L27.0711 17.0311C27.0547 17.0206 27.0377 17.0102 27.0201 17ZM23.3925 20.0387L23.3925 25.3102C23.3925 25.3863 23.3857 25.4567 23.3728 25.5209V29.3062C23.3728 29.906 22.9517 30.6355 22.4321 30.9355C21.9126 31.2354 21.4915 30.9923 21.4915 30.3924V21.1141C21.4915 21.038 21.4982 20.9598 21.5111 20.8807V18.9525C21.5111 18.3526 21.9323 18.1095 22.4518 18.4094C22.9713 18.7094 23.3925 19.4388 23.3925 20.0387ZM18.9292 32.9627L14.364 35.5985C13.8444 35.8984 13.4233 35.6553 13.4233 35.0554C13.4233 34.4555 13.8444 33.726 14.364 33.4261L18.9292 30.7903C19.4487 30.4904 19.8699 30.7335 19.8699 31.3334C19.8699 31.9333 19.4487 32.6628 18.9292 32.9627ZM14.364 30.9569L18.9292 28.3211C19.4487 28.0212 19.8699 27.2917 19.8699 26.6918C19.8699 26.0919 19.4487 25.8488 18.9292 26.1487L14.364 28.7845C13.8444 29.0844 13.4233 29.8139 13.4233 30.4138C13.4233 31.0137 13.8444 31.2568 14.364 30.9569ZM19.8699 22.0502C19.8699 22.5588 19.5672 23.1604 19.1585 23.5146C19.0988 23.5781 19.0224 23.6377 18.9295 23.6914L10.8943 28.3305C10.3748 28.6305 9.53246 28.6305 9.01294 28.3305C8.49341 28.0306 8.49341 27.5443 9.01294 27.2443L14.2231 24.2363C14.269 24.2018 14.3161 24.1705 14.364 24.1428L18.9292 21.5071C19.4487 21.2071 19.8699 21.4503 19.8699 22.0502ZM0.94111 23.6749L5.50635 26.3106C6.02587 26.6105 6.86818 26.6105 7.38771 26.3106C7.90723 26.0107 7.90723 25.5243 7.38771 25.2244L2.82247 22.5887C2.30295 22.2887 1.46063 22.2887 0.94111 22.5887C0.421587 22.8886 0.421587 23.3749 0.94111 23.6749ZM9.52588 23.9898L4.96064 21.3541C4.44112 21.0541 4.44112 20.5678 4.96064 20.2679C5.48017 19.9679 6.32248 19.9679 6.842 20.2679L11.4072 22.9036C11.9268 23.2035 11.9268 23.6899 11.4072 23.9898C10.8877 24.2897 10.0454 24.2897 9.52588 23.9898ZM5.53224 14.8577L13.5674 19.4968C13.6168 19.5253 13.6653 19.5577 13.7127 19.5935L15.4265 20.583C15.9461 20.883 15.9461 21.3693 15.4265 21.6692C14.907 21.9692 14.0647 21.9692 13.5452 21.6692L8.97994 19.0335C8.93054 19.005 8.88583 18.9747 8.84583 18.9432L5.53224 17.0301C5.01271 16.7301 4.59156 16.0007 4.59156 15.4008C4.59156 14.8009 5.01271 14.5577 5.53224 14.8577ZM4.58765 11.3534L4.58765 6.08196C4.58765 5.48206 5.00881 5.23891 5.52833 5.53886C6.04785 5.8388 6.46901 6.56827 6.46901 7.16816V12.4396C6.46901 13.0395 6.04785 13.2827 5.52833 12.9827C5.00881 12.6828 4.58765 11.9533 4.58765 11.3534ZM8.60718 8.40276V13.6742C8.60718 14.2741 9.02834 15.0036 9.54786 15.3035C10.0674 15.6035 10.4885 15.3603 10.4885 14.7604V9.48896C10.4885 8.88907 10.0674 8.1596 9.54786 7.85966C9.02834 7.55971 8.60718 7.80286 8.60718 8.40276ZM14.5081 5.60731V11.7808L12.6267 15.9717V6.69351C12.6267 6.09362 13.0479 5.36416 13.5674 5.06421C14.0869 4.76426 14.5081 5.00742 14.5081 5.60731ZM14.5081 11.7808L12.6271 16.001C12.6298 16.5998 13.0499 17.3255 13.5677 17.6244C14.0872 17.9244 14.5084 17.6812 14.5084 17.0813V11.8099C14.5084 11.8002 14.5083 11.7905 14.5081 11.7808Z" fill="#1E152A"/>
</svg>
